<svg width="236" height="42" viewBox="0 0 236 42" fill="none" xmlns="http://www.w3.org/2000/svg">
<path d="M4.1354 19.9187C2.98672 20.1083 2.94863 21.9069 4.08874 22.1427C13.777 24.1465 17.9914 26.9412 20.3268 37.1887C20.591 38.3483 22.6682 38.3304 22.8827 37.1606C24.7477 26.9915 27.7932 23.9435 37.961 22.0802C39.1309 21.8658 39.1311 19.9087 37.9613 19.6942C27.7922 17.8292 24.7442 14.7837 22.8809 4.61588C22.6665 3.44608 20.7094 3.44583 20.4949 4.61561C18.5538 15.1998 15.3338 18.0697 4.1354 19.9187Z" fill="white"/>
<path d="M20.2857 32.3783C19.3943 28.4667 18.1325 25.9231 16.125 24.172C14.1244 22.4269 11.4236 21.5056 7.74424 20.7446C7.49929 20.6939 7.35558 20.476 7.36135 20.2023C7.36712 19.9285 7.52004 19.7162 7.76718 19.6754C12.0151 18.974 14.8276 18.0698 16.7545 16.2814C18.6861 14.4885 19.678 11.8542 20.4157 7.83152C20.4604 7.5881 20.6928 7.4236 21.0115 7.42363C21.3302 7.42367 21.5626 7.58824 21.6073 7.83168C22.3154 11.6961 23.259 14.2791 25.046 16.0656C26.833 17.8521 29.4167 18.7956 33.2815 19.5044C33.5249 19.549 33.6894 19.7815 33.6894 20.1001C33.6893 20.4188 33.5248 20.6513 33.2813 20.6959C29.417 21.4041 26.8339 22.3477 25.0474 24.1346C23.2609 25.9216 22.3174 28.5053 21.6086 32.3701C21.5657 32.604 21.3213 32.7823 20.9595 32.7859C20.598 32.7895 20.3397 32.6152 20.2857 32.3783Z" fill="white" stroke="white" stroke-width="0.626074"/>
<path d="M64.256 31.32C70.944 31.32 75.2 27.992 75.2 22.552V22.072H69.856V22.552C69.856 25.368 68.256 26.712 64.352 26.712C59.648 26.712 57.888 25.048 57.888 20.28C57.888 15.512 59.648 13.848 64.352 13.848C68.256 13.848 69.856 15.192 69.856 18.008V18.488H75.2V18.008C75.2 12.568 70.912 9.24 64.256 9.24C57.184 9.24 52.8 13.592 52.8 20.28C52.8 26.968 57.184 31.32 64.256 31.32ZM85.824 31.32C91.296 31.32 94.976 28.056 94.976 23C94.976 17.88 91.296 14.648 85.824 14.648C80.352 14.648 76.672 17.88 76.672 23C76.672 28.056 80.352 31.32 85.824 31.32ZM85.824 27.064C82.56 27.064 81.44 25.816 81.44 23C81.44 20.184 82.56 18.872 85.824 18.872C89.056 18.872 90.208 20.184 90.208 23C90.208 25.816 89.056 27.064 85.824 27.064ZM101.736 31V9.56H96.9363V31H101.736ZM112.793 31.32C118.265 31.32 121.945 28.056 121.945 23C121.945 17.88 118.265 14.648 112.793 14.648C107.321 14.648 103.641 17.88 103.641 23C103.641 28.056 107.321 31.32 112.793 31.32ZM112.793 27.064C109.529 27.064 108.409 25.816 108.409 23C108.409 20.184 109.529 18.872 112.793 18.872C116.025 18.872 117.177 20.184 117.177 23C117.177 25.816 116.025 27.064 112.793 27.064ZM128.705 31V21.72C128.705 19.704 129.473 18.712 131.617 18.712C133.569 18.712 134.273 19.48 134.273 21.24V22.904H139.073V20.248C139.073 17.112 137.601 14.648 134.017 14.648C130.785 14.648 129.089 16.632 128.641 19.224H128.353V14.968H123.905V31H128.705ZM146.891 31V18.936H151.851V14.968H146.699C146.571 13.4 147.563 13.048 149.675 13.048H151.851V9.56H150.443C145.515 9.56 142.699 11.736 142.187 14.968H139.819V18.936H142.091V31H146.891ZM161.98 31.32C167.452 31.32 171.132 28.056 171.132 23C171.132 17.88 167.452 14.648 161.98 14.648C156.508 14.648 152.828 17.88 152.828 23C152.828 28.056 156.508 31.32 161.98 31.32ZM161.98 27.064C158.716 27.064 157.596 25.816 157.596 23C157.596 20.184 158.716 18.872 161.98 18.872C165.212 18.872 166.364 20.184 166.364 23C166.364 25.816 165.212 27.064 161.98 27.064ZM177.893 31V9.56H173.093V31H177.893ZM185.205 13.336V9.56H180.405V13.336H185.205ZM185.205 31V14.968H180.405V31H185.205ZM196.262 31.32C201.734 31.32 205.414 28.056 205.414 23C205.414 17.88 201.734 14.648 196.262 14.648C190.79 14.648 187.11 17.88 187.11 23C187.11 28.056 190.79 31.32 196.262 31.32ZM196.262 27.064C192.998 27.064 191.878 25.816 191.878 23C191.878 20.184 192.998 18.872 196.262 18.872C199.494 18.872 200.646 20.184 200.646 23C200.646 25.816 199.494 27.064 196.262 27.064ZM217.143 31L222.967 23.256H223.319L229.303 31H235.575L227.255 20.504V20.152L235.575 9.56H229.303L223.511 17.208H223.159L217.143 9.56H210.871L219.223 20.056V20.408L210.871 31H217.143Z" fill="white"/>
</svg>
