<svg width="362" height="87" viewBox="0 0 362 87" fill="none" xmlns="http://www.w3.org/2000/svg">
<path fill-rule="evenodd" clip-rule="evenodd" d="M319 7H40H38V7.04913C16.8378 8.09119 0 25.5793 0 47C0 68.4207 16.8378 85.9088 38 86.9509V87H40H319H321V86.9509C342.162 85.9088 359 68.4207 359 47C359 25.5793 342.162 8.09119 321 7.04913V7H319Z" fill="#202020"/>
<mask id="path-2-inside-1_10_2" fill="white">
<path fill-rule="evenodd" clip-rule="evenodd" d="M322 0H43H41V0.04913C19.8378 1.09119 3 18.5793 3 40C3 61.4207 19.8378 78.9088 41 79.9509V80H43H322H324V79.9509C345.162 78.9088 362 61.4207 362 40C362 18.5793 345.162 1.09119 324 0.04913V0H322Z"/>
</mask>
<path fill-rule="evenodd" clip-rule="evenodd" d="M322 0H43H41V0.04913C19.8378 1.09119 3 18.5793 3 40C3 61.4207 19.8378 78.9088 41 79.9509V80H43H322H324V79.9509C345.162 78.9088 362 61.4207 362 40C362 18.5793 345.162 1.09119 324 0.04913V0H322Z" fill="#89BFFF"/>
<path d="M41 0V-4H37V0H41ZM41 0.04913L41.1967 4.04429L45 3.85701V0.04913H41ZM41 79.9509H45V76.143L41.1967 75.9557L41 79.9509ZM41 80H37V84H41V80ZM324 80V84H328V80H324ZM324 79.9509L323.803 75.9557L320 76.143V79.9509H324ZM324 0.04913H320V3.85701L323.803 4.04429L324 0.04913ZM324 0H328V-4H324V0ZM43 4H322V-4H43V4ZM41 4H43V-4H41V4ZM45 0.04913V0H37V0.04913H45ZM7 40C7 20.7225 22.154 4.98198 41.1967 4.04429L40.8033 -3.94603C17.5215 -2.7996 -1 16.436 -1 40H7ZM41.1967 75.9557C22.154 75.018 7 59.2775 7 40H-1C-1 63.564 17.5215 82.7996 40.8033 83.946L41.1967 75.9557ZM45 80V79.9509H37V80H45ZM43 76H41V84H43V76ZM322 76H43V84H322V76ZM324 76H322V84H324V76ZM320 79.9509V80H328V79.9509H320ZM358 40C358 59.2775 342.846 75.018 323.803 75.9557L324.197 83.946C347.478 82.7996 366 63.564 366 40H358ZM323.803 4.04429C342.846 4.98198 358 20.7225 358 40H366C366 16.436 347.478 -2.7996 324.197 -3.94603L323.803 4.04429ZM320 0V0.04913H328V0H320ZM322 4H324V-4H322V4Z" fill="#202020" mask="url(#path-2-inside-1_10_2)"/>
<path d="M44.008 50.32C40.744 50.32 38.2373 49.68 36.488 48.4C34.7387 47.12 33.864 45.2427 33.864 42.768V42.576H38.664V43.152C38.664 44.176 39.0267 44.9013 39.752 45.328C40.4773 45.7333 41.896 45.936 44.008 45.936C45.864 45.936 47.112 45.7867 47.752 45.488C48.4133 45.1893 48.744 44.6667 48.744 43.92C48.744 43.28 48.5307 42.8107 48.104 42.512C47.6773 42.192 46.9093 41.936 45.8 41.744L39.784 40.88C35.7093 40.24 33.672 38.2347 33.672 34.864C33.672 33.0293 34.472 31.472 36.072 30.192C37.6933 28.8907 40.168 28.24 43.496 28.24C46.696 28.24 49.1067 28.912 50.728 30.256C52.3493 31.6 53.16 33.4453 53.16 35.792V35.984H48.328V35.536C48.328 34.4693 47.9547 33.7227 47.208 33.296C46.4827 32.848 45.0853 32.624 43.016 32.624C41.3307 32.624 40.1573 32.7947 39.496 33.136C38.8347 33.456 38.504 33.968 38.504 34.672C38.504 35.2907 38.6853 35.7387 39.048 36.016C39.432 36.2933 40.0827 36.5173 41 36.688L47.016 37.648C51.368 38.352 53.544 40.368 53.544 43.696C53.544 45.5947 52.7547 47.1733 51.176 48.432C49.5973 49.6907 47.208 50.32 44.008 50.32ZM70.6667 48.048C69.0028 49.5627 66.7948 50.32 64.0428 50.32C61.2908 50.32 59.0721 49.5627 57.3868 48.048C55.7228 46.5333 54.8908 44.5173 54.8908 42C54.8908 39.4613 55.7228 37.4347 57.3868 35.92C59.0721 34.4053 61.2908 33.648 64.0428 33.648C66.7948 33.648 69.0028 34.4053 70.6667 35.92C72.3521 37.4347 73.1948 39.4613 73.1948 42C73.1948 44.5173 72.3521 46.5333 70.6667 48.048ZM60.6508 45.104C61.3121 45.744 62.4428 46.064 64.0428 46.064C65.6428 46.064 66.7734 45.744 67.4348 45.104C68.0961 44.464 68.4268 43.4293 68.4268 42C68.4268 40.5707 68.0854 39.5253 67.4028 38.864C66.7414 38.2027 65.6214 37.872 64.0428 37.872C62.4428 37.872 61.3121 38.2027 60.6508 38.864C59.9894 39.504 59.6588 40.5493 59.6588 42C59.6588 43.4293 59.9894 44.464 60.6508 45.104ZM81.235 50H76.435V37.936H74.163V33.968H76.531C76.787 32.304 77.619 30.992 79.027 30.032C80.4563 29.0507 82.3763 28.56 84.787 28.56H86.195V32.048H84.019C82.9097 32.048 82.1203 32.1867 81.651 32.464C81.1817 32.72 80.979 33.2213 81.043 33.968H87.795V30.864H92.595V33.968H97.747V37.936H92.595V43.664C92.595 44.4533 92.755 44.9867 93.075 45.264C93.4163 45.5413 94.0137 45.68 94.867 45.68H97.747V50H93.811C89.8003 50 87.795 48.0693 87.795 44.208V37.936H81.235V50ZM108.649 50H102.665L98.2812 33.968H103.241L105.129 41.296L105.801 46.288H106.121L107.401 40.816L109.833 33.968H116.009L118.409 40.816L119.689 46.288H120.009L120.713 41.296L122.569 33.968H127.465L122.921 50H116.937L114.185 42.288L113.001 37.872H112.649L111.433 42.288L108.649 50ZM133.677 50.32C131.949 50.32 130.594 49.9467 129.613 49.2C128.631 48.432 128.141 47.376 128.141 46.032C128.141 43.6 129.869 42.2027 133.325 41.84L140.205 41.136V40.528C140.205 39.504 139.949 38.8107 139.437 38.448C138.925 38.064 138.018 37.872 136.717 37.872C135.479 37.872 134.594 38.064 134.061 38.448C133.549 38.8107 133.293 39.44 133.293 40.336V40.464H128.461V40.368C128.461 38.3627 129.239 36.7413 130.797 35.504C132.354 34.2667 134.445 33.648 137.069 33.648C139.671 33.648 141.634 34.2667 142.957 35.504C144.279 36.7413 144.941 38.4373 144.941 40.592V50H140.461V46.32H140.205C139.821 47.5787 139.074 48.56 137.965 49.264C136.855 49.968 135.426 50.32 133.677 50.32ZM132.973 45.712C132.973 46.5227 133.666 46.928 135.053 46.928C136.738 46.928 137.997 46.704 138.829 46.256C139.682 45.7867 140.141 44.9973 140.205 43.888L134.637 44.528C133.527 44.6133 132.973 45.008 132.973 45.712ZM152.174 50H147.374V33.968H151.822V38.224H152.11C152.344 36.8373 152.91 35.728 153.806 34.896C154.723 34.064 155.95 33.648 157.486 33.648C159.192 33.648 160.462 34.16 161.294 35.184C162.126 36.208 162.542 37.5627 162.542 39.248V41.904H157.742V40.24C157.742 39.344 157.539 38.704 157.134 38.32C156.728 37.9147 156.046 37.712 155.086 37.712C154.04 37.712 153.294 37.9573 152.846 38.448C152.398 38.9387 152.174 39.696 152.174 40.72V50ZM172.792 50.32C170.019 50.32 167.821 49.6267 166.2 48.24C164.6 46.832 163.8 44.752 163.8 42C163.8 39.4613 164.611 37.4347 166.232 35.92C167.875 34.4053 170.029 33.648 172.696 33.648C175.363 33.648 177.485 34.3307 179.064 35.696C180.643 37.04 181.432 38.9493 181.432 41.424C181.432 41.7227 181.389 42.2347 181.304 42.96H168.248C168.312 44.2187 168.675 45.1253 169.336 45.68C169.997 46.2133 171.096 46.48 172.632 46.48C174.019 46.48 175 46.3093 175.576 45.968C176.173 45.6053 176.472 45.072 176.472 44.368V44.048H181.272V44.4C181.272 46.1493 180.493 47.5787 178.936 48.688C177.379 49.776 175.331 50.32 172.792 50.32ZM175.704 38.128C175.043 37.6373 174.008 37.392 172.6 37.392C171.192 37.392 170.147 37.6373 169.464 38.128C168.803 38.6187 168.419 39.3867 168.312 40.432H176.824C176.76 39.3653 176.387 38.5973 175.704 38.128ZM206.549 50H188.405V28.56H206.549V32.88H193.205V37.072H206.069V41.36H193.205V45.68H206.549V50ZM213.518 50H208.718V33.968H213.166V38.896H213.454C213.688 37.4027 214.339 36.1547 215.406 35.152C216.494 34.1493 218.019 33.648 219.982 33.648C222.094 33.648 223.694 34.2453 224.782 35.44C225.891 36.6133 226.446 38.1387 226.446 40.016V50H221.646V41.616C221.646 40.3147 221.336 39.3867 220.718 38.832C220.12 38.256 219.096 37.968 217.646 37.968C216.152 37.968 215.086 38.2773 214.446 38.896C213.827 39.5147 213.518 40.5173 213.518 41.904V50ZM235.914 48.368C233.546 48.368 231.7 47.7173 230.378 46.416C229.055 45.0933 228.394 43.2907 228.394 41.008C228.394 38.7467 229.076 36.9547 230.442 35.632C231.828 34.3093 233.716 33.648 236.106 33.648C237.77 33.648 239.135 34.0107 240.202 34.736C241.29 35.44 241.962 36.4747 242.218 37.84H242.474V33.968H246.954V47.664C246.954 53.0613 243.914 55.76 237.834 55.76C235.21 55.76 233.14 55.2053 231.626 54.096C230.132 52.9867 229.386 51.4293 229.386 49.424H234.186C234.186 50.3413 234.442 50.96 234.954 51.28C235.487 51.6 236.554 51.76 238.154 51.76C239.732 51.76 240.788 51.5147 241.322 51.024C241.876 50.5333 242.154 49.52 242.154 47.984V44.368H241.898C241.62 45.6053 240.98 46.5867 239.978 47.312C238.996 48.016 237.642 48.368 235.914 48.368ZM234.25 38.544C233.567 39.0133 233.226 39.8347 233.226 41.008C233.226 42.1813 233.567 43.0133 234.25 43.504C234.932 43.9947 236.042 44.24 237.578 44.24C239.135 44.24 240.287 44.0053 241.034 43.536C241.78 43.0453 242.154 42.256 242.154 41.168V40.816C242.154 39.7493 241.78 38.9813 241.034 38.512C240.308 38.0427 239.178 37.808 237.642 37.808C236.084 37.808 234.954 38.0533 234.25 38.544ZM254.299 32.336H249.499V28.56H254.299V32.336ZM254.299 50H249.499V33.968H254.299V50ZM261.611 50H256.811V33.968H261.259V38.896H261.547C261.782 37.4027 262.433 36.1547 263.499 35.152C264.587 34.1493 266.113 33.648 268.075 33.648C270.187 33.648 271.787 34.2453 272.875 35.44C273.985 36.6133 274.539 38.1387 274.539 40.016V50H269.739V41.616C269.739 40.3147 269.43 39.3867 268.811 38.832C268.214 38.256 267.19 37.968 265.739 37.968C264.246 37.968 263.179 38.2773 262.539 38.896C261.921 39.5147 261.611 40.5173 261.611 41.904V50ZM285.48 50.32C282.706 50.32 280.509 49.6267 278.888 48.24C277.288 46.832 276.488 44.752 276.488 42C276.488 39.4613 277.298 37.4347 278.92 35.92C280.562 34.4053 282.717 33.648 285.384 33.648C288.05 33.648 290.173 34.3307 291.752 35.696C293.33 37.04 294.12 38.9493 294.12 41.424C294.12 41.7227 294.077 42.2347 293.992 42.96H280.936C281 44.2187 281.362 45.1253 282.024 45.68C282.685 46.2133 283.784 46.48 285.32 46.48C286.706 46.48 287.688 46.3093 288.264 45.968C288.861 45.6053 289.16 45.072 289.16 44.368V44.048H293.96V44.4C293.96 46.1493 293.181 47.5787 291.624 48.688C290.066 49.776 288.018 50.32 285.48 50.32ZM288.392 38.128C287.73 37.6373 286.696 37.392 285.288 37.392C283.88 37.392 282.834 37.6373 282.152 38.128C281.49 38.6187 281.106 39.3867 281 40.432H289.512C289.448 39.3653 289.074 38.5973 288.392 38.128ZM304.667 50.32C301.894 50.32 299.696 49.6267 298.075 48.24C296.475 46.832 295.675 44.752 295.675 42C295.675 39.4613 296.486 37.4347 298.107 35.92C299.75 34.4053 301.904 33.648 304.571 33.648C307.238 33.648 309.36 34.3307 310.939 35.696C312.518 37.04 313.307 38.9493 313.307 41.424C313.307 41.7227 313.264 42.2347 313.179 42.96H300.123C300.187 44.2187 300.55 45.1253 301.211 45.68C301.872 46.2133 302.971 46.48 304.507 46.48C305.894 46.48 306.875 46.3093 307.451 45.968C308.048 45.6053 308.347 45.072 308.347 44.368V44.048H313.147V44.4C313.147 46.1493 312.368 47.5787 310.811 48.688C309.254 49.776 307.206 50.32 304.667 50.32ZM307.579 38.128C306.918 37.6373 305.883 37.392 304.475 37.392C303.067 37.392 302.022 37.6373 301.339 38.128C300.678 38.6187 300.294 39.3867 300.187 40.432H308.699C308.635 39.3653 308.262 38.5973 307.579 38.128ZM320.143 50H315.343V33.968H319.791V38.224H320.079C320.313 36.8373 320.879 35.728 321.775 34.896C322.692 34.064 323.919 33.648 325.455 33.648C327.161 33.648 328.431 34.16 329.263 35.184C330.095 36.208 330.51 37.5627 330.51 39.248V41.904H325.711V40.24C325.711 39.344 325.508 38.704 325.103 38.32C324.697 37.9147 324.015 37.712 323.055 37.712C322.009 37.712 321.263 37.9573 320.815 38.448C320.367 38.9387 320.143 39.696 320.143 40.72V50Z" fill="#202020"/>
</svg>
