<svg width="137" height="175" viewBox="0 0 137 175" fill="none" xmlns="http://www.w3.org/2000/svg">
<path d="M18.6155 89.8175C18.6801 89.3365 18.8748 88.8823 19.1784 88.504C19.4821 88.1256 19.8832 87.8374 20.3386 87.6704L57.7989 74.1766L23.0279 37.8433C22.7232 37.5311 22.5025 37.1469 22.3862 36.7264C22.2699 36.3059 22.262 35.8628 22.363 35.4385C22.4541 35.0123 22.6507 34.6158 22.9347 34.2854C23.2187 33.955 23.5811 33.7011 23.9886 33.5472L71.8204 15.1198C72.4094 14.8855 73.0634 14.8724 73.6614 15.0831C74.2595 15.2937 74.7613 15.7137 75.0739 16.2656L115.485 86.5887C115.659 86.9107 115.764 87.2658 115.792 87.6308C115.82 87.9959 115.77 88.3627 115.647 88.7073C115.521 89.0735 115.316 89.4074 115.046 89.6848C114.776 89.9623 114.448 90.1766 114.085 90.3122L80.1856 103.372L109.8 148.672C110.023 149.001 110.168 149.376 110.224 149.769C110.281 150.162 110.248 150.563 110.127 150.941C110.006 151.32 109.801 151.665 109.527 151.953C109.253 152.24 108.918 152.462 108.546 152.601C108.142 152.758 107.706 152.813 107.276 152.762C106.846 152.711 106.435 152.555 106.079 152.308L19.7185 92.2279C19.3375 91.9601 19.0345 91.5957 18.8406 91.1721C18.6468 90.7485 18.5691 90.281 18.6155 89.8175Z" fill="#202020"/>
<path d="M59.2658 62.9093L61.6751 65.4268L58.3967 66.6078L20.9485 80.0972C20.9474 80.0976 20.9463 80.098 20.9452 80.0984C20.8789 80.1234 20.8202 80.1658 20.7754 80.2216C20.7381 80.268 20.7118 80.3222 20.6982 80.38C20.6984 80.4311 20.7095 80.4817 20.7309 80.5285C20.7571 80.5858 20.7979 80.6352 20.8491 80.6718C20.8499 80.6724 20.8507 80.6729 20.8514 80.6735L107.202 140.746C107.253 140.782 107.312 140.804 107.373 140.812C107.434 140.819 107.497 140.811 107.554 140.789L107.568 140.783L107.583 140.778C107.633 140.759 107.679 140.729 107.716 140.69C107.754 140.65 107.782 140.603 107.798 140.551C107.814 140.5 107.819 140.445 107.811 140.391C107.804 140.337 107.784 140.285 107.753 140.24L107.743 140.225L107.734 140.211L78.1188 94.9115L76.5848 92.565L79.2008 91.5572L113.101 78.4971L113.111 78.4932L113.121 78.4894C113.17 78.471 113.215 78.4419 113.252 78.404C113.289 78.3661 113.317 78.3206 113.334 78.2705L113.338 78.257L113.343 78.2435C113.359 78.1986 113.366 78.1508 113.362 78.1032C113.359 78.0606 113.348 78.019 113.329 77.9805L72.9391 7.6939L72.939 7.69392L72.9322 7.68178C72.8892 7.60604 72.8204 7.54847 72.7386 7.51964C72.6568 7.49086 72.5678 7.49273 72.4878 7.52454L72.4764 7.52911L72.4648 7.53355L24.633 25.9609L24.6261 25.9636L24.6192 25.9662C24.5667 25.986 24.5198 26.0188 24.483 26.0617C24.4461 26.1046 24.4205 26.1561 24.4087 26.2115L24.4032 26.2371L24.3972 26.2625C24.3847 26.3151 24.3857 26.3699 24.4 26.4219C24.4144 26.4737 24.4417 26.5213 24.4795 26.5601L24.4872 26.568L24.4948 26.5759L59.2658 62.9093Z" fill="#BDF4A4" stroke="#202020" stroke-width="4.53184"/>
</svg>
