<svg width="102" height="101" viewBox="0 0 102 101" fill="none" xmlns="http://www.w3.org/2000/svg">
<path d="M93.288 53.7198C95.2202 53.6557 97.1749 53.5581 99.1131 53.332C98.9016 78.4295 78.5347 98.7021 53.4506 98.7021C28.235 98.7021 7.78642 78.2166 7.78642 52.9373C7.78642 29.8757 24.8071 10.8002 46.9377 7.63416C46.9457 16.0916 47.3088 23.2824 48.4746 29.2726C49.6565 35.3459 51.6899 40.3301 55.1467 44.1835C62.0772 51.9093 74.041 54.3577 93.288 53.7198Z" fill="#202020" stroke="#202020" stroke-width="4.11776"/>
<path d="M85.9892 47.7935C87.8661 47.7313 89.7649 47.6364 91.6477 47.4168C91.4422 71.7966 71.6579 91.4894 47.2911 91.4894C22.7967 91.4894 2.93283 71.5898 2.93283 47.0334C2.93283 24.6313 19.4667 6.10129 40.9644 3.02584C40.9722 11.2414 41.325 18.2266 42.4574 24.0455C43.6055 29.9451 45.5808 34.7867 48.9387 38.53C55.671 46.0348 67.2926 48.4132 85.9892 47.7935Z" fill="#89BFFF" stroke="#202020" stroke-width="4"/>
</svg>
