<svg width="93" height="93" viewBox="0 0 93 93" fill="none" xmlns="http://www.w3.org/2000/svg">
<path d="M51.2071 92.9253C74.2462 92.9253 92.923 74.2484 92.923 51.2093C92.923 28.1703 74.2462 9.49341 51.2071 9.49341C28.1681 9.49341 9.4912 28.1703 9.4912 51.2093C9.4912 74.2484 28.1681 92.9253 51.2071 92.9253Z" fill="#202020"/>
<path d="M44.6393 86.3571C67.6783 86.3571 86.3552 67.6803 86.3552 44.6412C86.3552 21.6021 67.6783 2.92529 44.6393 2.92529C21.6002 2.92529 2.92334 21.6021 2.92334 44.6412C2.92334 67.6803 21.6002 86.3571 44.6393 86.3571Z" fill="#FFAB7B" stroke="#202020" stroke-width="4" stroke-linecap="round" stroke-linejoin="round"/>
<path d="M35.0126 28.5967L60.684 44.6413L35.0126 60.6859V28.5967Z" fill="#FFEFE6" stroke="#202020" stroke-width="4" stroke-linecap="round" stroke-linejoin="round"/>
</svg>
