<?xml version="1.0" standalone="no"?>
<!DOCTYPE svg PUBLIC "-//W3C//DTD SVG 20010904//EN"
 "http://www.w3.org/TR/2001/REC-SVG-20010904/DTD/svg10.dtd">
<svg version="1.0" xmlns="http://www.w3.org/2000/svg"
 width="400.000000pt" height="400.000000pt" viewBox="0 0 400.000000 400.000000"
 preserveAspectRatio="xMidYMid meet">

<g transform="translate(0.000000,400.000000) scale(0.100000,-0.100000)"
fill="#000000" stroke="none">
<path d="M1810 3959 c-288 -28 -601 -133 -847 -287 -848 -526 -1167 -1595
-744 -2488 157 -330 390 -601 685 -798 526 -349 1178 -429 1766 -214 484 176
892 547 1106 1005 308 655 232 1425 -197 2003 -76 103 -237 270 -339 353 -393
318 -921 475 -1430 426z m-74 -1496 c142 -474 262 -859 265 -855 3 4 127 407
274 897 147 490 270 896 274 903 4 6 165 -505 359 -1138 194 -632 355 -1157
358 -1165 5 -12 -6 -15 -65 -15 l-70 0 -11 43 c-54 207 -138 439 -201 558
-151 283 -417 359 -615 177 -88 -81 -193 -248 -270 -430 -16 -38 -31 -68 -35
-68 -3 0 -25 42 -48 93 -80 175 -141 274 -223 362 -104 111 -161 140 -273 139
-106 0 -175 -32 -266 -123 -56 -56 -77 -87 -127 -191 -63 -128 -131 -316 -172
-472 l-23 -88 -69 0 c-61 0 -69 2 -64 18 11 37 688 2249 698 2282 l11 35 17
-50 c9 -28 133 -438 276 -912z"/>
</g>
</svg>
