<svg version="1.1" id="Layer_1" xmlns="http://www.w3.org/2000/svg" xmlns:xlink="http://www.w3.org/1999/xlink" x="0px" y="0px"
	 width="100%" viewBox="0 0 400 400" enable-background="new 0 0 400 400" xml:space="preserve">
<path fill="#000001" opacity="1.000000" stroke="none" 
	d="
M224.000000,401.000000 
	C149.356506,401.000000 75.213013,401.000000 1.034760,401.000000 
	C1.034760,267.731506 1.034760,134.462997 1.034760,1.097249 
	C134.226776,1.097249 267.453644,1.097249 400.840271,1.097249 
	C400.840271,134.333176 400.840271,267.666565 400.840271,401.000000 
	C342.129730,401.000000 283.314880,401.000000 224.000000,401.000000 
M256.386414,387.939117 
	C268.538605,382.985168 281.155701,378.931610 292.769501,372.935028 
	C386.882111,324.341583 424.945221,206.166077 377.096649,112.131996 
	C326.688690,13.068157 205.707489,-25.740503 108.002769,27.630674 
	C41.312744,64.060081 6.088387,121.888382 4.262418,198.212219 
	C3.070334,248.040176 19.747295,292.578461 53.538929,329.197601 
	C108.739426,389.017029 176.682602,408.117432 256.386414,387.939117 
z"/>
<path fill="#0079C1" opacity="1.000000" stroke="none" 
	d="
M255.990585,388.020447 
	C176.682602,408.117432 108.739426,389.017029 53.538929,329.197601 
	C19.747295,292.578461 3.070334,248.040176 4.262418,198.212219 
	C6.088387,121.888382 41.312744,64.060081 108.002769,27.630674 
	C205.707489,-25.740503 326.688690,13.068157 377.096649,112.131996 
	C424.945221,206.166077 386.882111,324.341583 292.769501,372.935028 
	C281.155701,378.931610 268.538605,382.985168 255.990585,388.020447 
M162.246429,115.181976 
	C156.780273,97.000870 151.314117,78.819756 145.416504,59.203564 
	C121.385323,137.641876 97.805252,214.607773 74.206039,291.636169 
	C79.123848,291.636169 83.371941,291.636169 87.497391,291.636169 
	C87.717407,290.950165 87.837440,290.638275 87.917809,290.316437 
	C93.207695,269.130341 99.566917,248.318298 110.141464,229.066208 
	C114.524460,221.086517 120.303696,214.218887 128.155533,209.373367 
	C142.300171,200.644440 157.662689,202.295670 169.905563,213.573105 
	C182.619034,225.283997 189.709351,240.541733 196.877594,255.770248 
	C198.085281,258.335907 199.237900,260.927460 200.840942,264.437622 
	C202.951874,259.716034 204.535156,256.092041 206.185120,252.498688 
	C212.671539,238.372269 219.874146,224.709396 231.367706,213.842239 
	C243.745575,202.138947 259.524384,200.537048 273.938995,209.617264 
	C281.593414,214.439041 287.759918,220.979660 291.452118,229.062180 
	C297.515259,242.334793 302.851868,255.959946 307.988495,269.626770 
	C310.703888,276.851593 312.350494,284.478149 314.409760,291.678955 
	C318.896881,291.678955 322.956635,291.678955 327.547455,291.678955 
	C303.855042,214.351318 280.301788,137.477997 256.332916,59.248112 
	C237.776245,120.692406 219.606110,180.856750 201.435989,241.021103 
	C201.038467,240.980377 200.640945,240.939667 200.243439,240.898956 
	C187.676575,199.241867 175.109711,157.584778 162.246429,115.181976 
z"/>
<path fill="#FDFEFE" opacity="1.000000" stroke="none" 
	d="
M162.394638,115.554840 
	C175.109711,157.584778 187.676575,199.241867 200.243439,240.898956 
	C200.640945,240.939667 201.038467,240.980377 201.435989,241.021103 
	C219.606110,180.856750 237.776245,120.692406 256.332916,59.248112 
	C280.301788,137.477997 303.855042,214.351318 327.547455,291.678955 
	C322.956635,291.678955 318.896881,291.678955 314.409760,291.678955 
	C312.350494,284.478149 310.703888,276.851593 307.988495,269.626770 
	C302.851868,255.959946 297.515259,242.334793 291.452118,229.062180 
	C287.759918,220.979660 281.593414,214.439041 273.938995,209.617264 
	C259.524384,200.537048 243.745575,202.138947 231.367706,213.842239 
	C219.874146,224.709396 212.671539,238.372269 206.185120,252.498688 
	C204.535156,256.092041 202.951874,259.716034 200.840942,264.437622 
	C199.237900,260.927460 198.085281,258.335907 196.877594,255.770248 
	C189.709351,240.541733 182.619034,225.283997 169.905563,213.573105 
	C157.662689,202.295670 142.300171,200.644440 128.155533,209.373367 
	C120.303696,214.218887 114.524460,221.086517 110.141464,229.066208 
	C99.566917,248.318298 93.207695,269.130341 87.917809,290.316437 
	C87.837440,290.638275 87.717407,290.950165 87.497391,291.636169 
	C83.371941,291.636169 79.123848,291.636169 74.206039,291.636169 
	C97.805252,214.607773 121.385323,137.641876 145.416504,59.203564 
	C151.314117,78.819756 156.780273,97.000870 162.394638,115.554840 
z"/>
</svg>