<svg width="68" height="96" viewBox="0 0 68 96" fill="none" xmlns="http://www.w3.org/2000/svg">
<path d="M61.7315 20.6372C64.3345 25.1 65.6969 30.1777 65.6776 35.3441C65.6118 40.6725 64.0778 45.8796 61.2443 50.3927C58.4108 54.9058 54.3877 58.55 49.6172 60.9248V75.4122V80.1874C49.6172 87.3199 43.8352 93.1019 36.7027 93.1019C29.5702 93.1019 23.7882 87.3199 23.7882 80.1874V75.4122V61.1731C19.1633 58.8703 15.2383 55.3728 12.4197 51.0429C9.60116 46.713 7.99158 41.7083 7.75773 36.5471C7.52388 31.386 8.67427 26.2561 11.0897 21.6891C13.5052 17.1221 17.0978 13.2839 21.4955 10.5723C25.8932 7.86072 30.9359 6.37428 36.1012 6.26699C41.2666 6.1597 46.3667 7.43548 50.8731 9.96214C55.3796 12.4888 59.1285 16.1744 61.7315 20.6372Z" fill="#202020" stroke="#202020" stroke-width="4" stroke-linecap="round" stroke-linejoin="round"/>
<path d="M31.1435 2.92529C15.8718 2.92529 3.4917 15.3054 3.4917 30.5771C4.02191 37.6032 7.77775 52.9556 18.5595 58.1562V71.4749H43.2941V58.1562C48.7659 54.78 59.5266 44.5375 58.7953 30.5771C58.7953 15.3054 46.4152 2.92529 31.1435 2.92529Z" fill="#FDC75D"/>
<path d="M44.2871 72.8428H17.7893C14.9911 85.213 24.6907 89.5736 31.5894 89.6529C40.1276 89.751 46.7533 78.8606 44.2871 72.8428Z" fill="#FFDE9F"/>
<path d="M18.2286 72.0768V57.8377C13.6038 55.5349 9.67873 52.0374 6.86016 47.7075C4.04159 43.3776 2.43201 38.3728 2.19816 33.2117C1.96431 28.0505 3.1147 22.9207 5.53016 18.3537C7.94561 13.7866 11.5383 9.94848 15.9359 7.23688C20.3336 4.52527 25.3763 3.03883 30.5417 2.93154C35.707 2.82426 40.8071 4.10003 45.3135 6.62669C49.82 9.15335 53.5689 12.839 56.172 17.3018C58.775 21.7646 60.1374 26.8422 60.118 32.0086C60.0522 37.3371 58.5182 42.5441 55.6847 47.0572C52.8513 51.5703 48.8281 55.2146 44.0577 57.5893V72.0768M18.2286 72.0768H44.0577M18.2286 72.0768V76.852C18.2286 83.9844 24.0107 89.7665 31.1431 89.7665V89.7665C38.2756 89.7665 44.0577 83.9844 44.0577 76.852V72.0768" stroke="#202020" stroke-width="4" stroke-linecap="round" stroke-linejoin="round"/>
</svg>
