<svg width="181" height="182" viewBox="0 0 181 182" fill="none" xmlns="http://www.w3.org/2000/svg">
<path d="M70.4977 159.24C105.637 171.308 143.892 152.647 155.944 117.557C167.995 82.4683 149.279 44.2394 114.14 32.1708C79.0008 20.1023 40.7454 38.7641 28.6939 73.8532C16.6425 108.942 35.3587 147.171 70.4977 159.24Z" fill="#202020"/>
<path d="M150.463 107.351C138.772 141.393 101.656 159.502 67.5588 147.791C33.4619 136.081 15.3051 98.9878 26.9969 64.9458C38.6886 30.9039 75.8047 12.7947 109.902 24.5054C143.998 36.216 162.155 73.3089 150.463 107.351Z" fill="#FFDE9F" stroke="#202020" stroke-width="4"/>
<path d="M126.044 96.6953L126.056 96.6748L126.067 96.6534C126.268 96.2529 126.551 95.8992 126.897 95.6153C127.243 95.3313 127.644 95.1231 128.075 95.0037C128.505 94.8844 128.955 94.8567 129.396 94.9224C129.836 94.9879 130.257 95.1446 130.633 95.3826C131.375 95.8703 131.915 96.6127 132.151 97.4719C132.386 98.3243 132.305 99.2337 131.925 100.033C126.523 109.204 118.168 116.26 108.238 120.038C98.2992 123.818 87.378 124.088 77.2801 120.802C67.1822 117.516 58.5116 110.872 52.702 101.967C46.8938 93.0648 44.2929 82.4355 45.3295 71.8362C45.4363 70.9718 45.875 70.1824 46.5521 69.636C47.231 69.088 48.0954 68.8279 48.961 68.9102L48.9819 68.9122L49.0029 68.9129C49.4567 68.9275 49.9021 69.0377 50.3103 69.2363C50.7186 69.4349 51.0805 69.7173 51.3724 70.0654C51.6644 70.4136 51.8802 70.82 52.0054 71.2578C52.1307 71.6957 52.1626 72.1554 52.0991 72.6071L52.0968 72.6233L52.0953 72.6396C51.2703 81.6644 53.5262 90.6969 58.4943 98.2575C63.4625 105.818 70.8481 111.459 79.4415 114.254C88.0349 117.049 97.326 116.834 105.793 113.644C114.259 110.454 121.399 104.478 126.044 96.6953Z" fill="#202020" stroke="#202020" stroke-width="1.34546"/>
<path d="M75.3945 56.01C74.5851 54.4031 74.4212 52.5362 74.9402 50.7977C75.5989 49.1072 76.8753 47.735 78.5012 46.9645C80.138 46.1889 82.0014 46.0835 83.6997 46.6668C85.3981 47.2501 86.8035 48.4782 87.6184 50.0958C88.4277 51.7026 88.5914 53.5694 88.0724 55.308C87.4136 56.9986 86.1375 58.3709 84.5117 59.1413C82.8748 59.917 81.0115 60.0223 79.3131 59.439C77.6147 58.8557 76.2093 57.6277 75.3945 56.01Z" fill="#202020" stroke="#202020" stroke-width="2.16701"/>
<path d="M115.761 57.6794L115.778 57.6857L115.795 57.6914C116.66 57.972 117.461 58.4203 118.153 59.0102C118.844 59.6 119.412 60.3197 119.825 61.1282C120.237 61.9367 120.485 62.8179 120.556 63.7212C120.626 64.6155 120.519 65.5143 120.244 66.3673C119.589 68.0525 118.307 69.4204 116.663 70.1846C115.011 70.9528 113.123 71.0513 111.397 70.4583C109.67 69.8653 108.241 68.6276 107.409 67.0065C106.582 65.3934 106.411 63.5261 106.93 61.794C107.235 60.9516 107.703 60.177 108.307 59.5139C108.916 58.8443 109.653 58.3014 110.474 57.9166C111.295 57.5318 112.185 57.3127 113.092 57.2719C113.999 57.2312 114.906 57.3696 115.761 57.6794Z" fill="#202020" stroke="#202020" stroke-width="2.16701"/>
</svg>
