<svg width="166" height="168" viewBox="0 0 166 168" fill="none" xmlns="http://www.w3.org/2000/svg">
<path d="M36.2135 98.8321C36.0477 98.8403 35.9652 98.7953 35.8971 98.7352C35.804 98.6531 35.6978 98.4944 35.6473 98.2701C35.5969 98.046 35.6244 97.8545 35.6747 97.7365C35.7123 97.6484 35.7704 97.5701 35.9244 97.5052C51.3497 91.0057 61.2076 85.159 66.7472 76.5888C72.3086 67.9849 73.272 57.0274 72.0676 41.0429C72.0567 40.8984 72.0923 40.8101 72.1754 40.7156C72.2826 40.5935 72.4875 40.4561 72.7716 40.3855C73.0557 40.3148 73.3012 40.3403 73.4531 40.3979C73.5708 40.4426 73.6436 40.504 73.7017 40.6368C79.9155 54.8484 85.7212 63.9493 94.1977 69.0476C102.674 74.1458 113.436 75.0105 128.905 73.845C129.05 73.8341 129.138 73.8698 129.232 73.9528C129.354 74.06 129.492 74.2649 129.562 74.549C129.633 74.8331 129.608 75.0786 129.55 75.2305C129.505 75.3482 129.444 75.4211 129.311 75.4791C115.099 81.6929 105.999 87.4986 100.9 95.9751C95.802 104.451 94.9373 115.214 96.1028 130.682C96.1111 130.792 96.0882 130.88 95.9797 130.999C95.846 131.146 95.5941 131.31 95.249 131.399C94.9046 131.488 94.5956 131.469 94.393 131.402C94.2222 131.345 94.1483 131.269 94.098 131.165C87.2161 116.91 80.2597 108.295 71.0432 103.548C61.8845 98.8312 50.8227 98.115 36.2135 98.8321Z" fill="#202020" stroke="#202020" stroke-width="4"/>
<path d="M33.9698 94.3448C33.804 94.3529 33.7215 94.308 33.6534 94.2479C33.5603 94.1658 33.4541 94.0071 33.4037 93.7828C33.3532 93.5587 33.3807 93.3672 33.431 93.2492C33.4686 93.1611 33.5267 93.0828 33.6807 93.0179C49.1061 86.5184 58.9639 80.6717 64.5035 72.1015C70.0649 63.4976 71.0283 52.5401 69.8239 36.5556C69.813 36.4111 69.8487 36.3228 69.9317 36.2283C70.0389 36.1062 70.2439 35.9688 70.5279 35.8981C70.812 35.8275 71.0575 35.853 71.2094 35.9106C71.3271 35.9553 71.4 36.0167 71.458 36.1495C77.6718 50.3611 83.4776 59.462 91.954 64.5603C100.43 69.6585 111.193 70.5232 126.661 69.3577C126.806 69.3468 126.894 69.3825 126.989 69.4655C127.111 69.5727 127.248 69.7776 127.319 70.0617C127.389 70.3458 127.364 70.5913 127.306 70.7432C127.262 70.8609 127.2 70.9338 127.067 70.9918C112.856 77.2056 103.755 83.0113 98.6566 91.4878C93.5583 99.964 92.6937 110.727 93.8592 126.195C93.8674 126.305 93.8445 126.393 93.736 126.512C93.6023 126.659 93.3504 126.823 93.0053 126.912C92.6609 127.001 92.3519 126.982 92.1493 126.914C91.9785 126.858 91.9046 126.782 91.8543 126.677C84.9724 112.423 78.016 103.808 68.7995 99.0608C59.6408 94.3439 48.579 93.6277 33.9698 94.3448Z" fill="#FFDE9F" stroke="#202020" stroke-width="4"/>
</svg>
