<svg width="15" height="14" viewBox="0 0 15 14" fill="none" xmlns="http://www.w3.org/2000/svg">
<path d="M0.844192 7.20537C0.715771 7.17881 0.640423 7.06457 0.643446 6.92106C0.64647 6.77752 0.726647 6.66619 0.856219 6.64479C3.08334 6.27707 4.55796 5.80303 5.56818 4.86538C6.58093 3.92538 7.10096 2.54421 7.48775 0.435163C7.51116 0.307544 7.63303 0.221294 7.80011 0.221314C7.96719 0.221333 8.08907 0.307615 8.11246 0.435249C8.48374 2.46131 8.97847 3.81559 9.91537 4.75225C10.8523 5.68889 12.2069 6.18353 14.2332 6.55514C14.3608 6.57854 14.447 6.70042 14.447 6.8675C14.447 7.03458 14.3607 7.15646 14.2331 7.17984C12.207 7.55113 10.8527 8.04586 9.91608 8.98275C8.97944 9.91964 8.4848 11.2743 8.11318 13.3006C8.0907 13.4232 7.96256 13.5166 7.77286 13.5185C7.58331 13.5204 7.44788 13.429 7.41958 13.3049C6.9522 11.254 6.29065 9.92043 5.23817 9.00234C4.18928 8.08739 2.77324 7.60436 0.844192 7.20537Z" fill="#202020" stroke="#202020" stroke-width="0.328246"/>
</svg>
