<svg width="145" height="148" viewBox="0 0 145 148" fill="none" xmlns="http://www.w3.org/2000/svg">
<path d="M33.7192 87.3725C33.5734 87.3784 33.4982 87.3393 33.4295 87.2777C33.3364 87.1942 33.2293 87.0326 33.1778 86.8051C33.1263 86.5777 33.1531 86.3849 33.2016 86.2681C33.2376 86.1814 33.2896 86.1129 33.424 86.0549C45.8381 80.6975 53.963 75.7202 58.6494 68.5493C63.3589 61.3433 64.361 52.2923 63.5586 39.4481C63.5511 39.3283 63.5793 39.2468 63.6684 39.148C63.7815 39.0228 63.9962 38.8817 64.2918 38.8082C64.5873 38.7347 64.8432 38.7588 65.0018 38.8166C65.1269 38.8622 65.19 38.921 65.2396 39.0304C70.3371 50.293 75.2693 57.683 82.3365 61.9336C89.4034 66.1841 98.2447 67.0786 110.585 66.3077C110.704 66.3002 110.786 66.3284 110.885 66.4176C111.01 66.5306 111.151 66.7454 111.225 67.0409C111.298 67.3365 111.274 67.5923 111.216 67.7509C111.171 67.8761 111.112 67.9392 111.002 67.9887C99.7397 73.0862 92.3497 78.0185 88.0991 85.0856C83.8486 92.1525 82.954 100.994 83.725 113.334C83.73 113.415 83.7165 113.497 83.5975 113.624C83.4544 113.777 83.1876 113.947 82.8255 114.04C82.4641 114.134 82.1383 114.118 81.9228 114.051C81.7368 113.993 81.6717 113.916 81.6316 113.837C75.9131 102.519 70.0232 95.5184 62.3174 91.5699C54.6635 87.6479 45.5234 86.9023 33.7192 87.3725Z" fill="#202020" stroke="#202020" stroke-width="4"/>
<path d="M31.7192 82.3725C31.5734 82.3784 31.4982 82.3393 31.4295 82.2777C31.3364 82.1942 31.2293 82.0326 31.1778 81.8051C31.1263 81.5777 31.1531 81.3849 31.2016 81.2681C31.2376 81.1814 31.2896 81.1129 31.424 81.0549C43.8381 75.6975 51.963 70.7202 56.6494 63.5493C61.3589 56.3433 62.361 47.2923 61.5586 34.4481C61.5511 34.3283 61.5793 34.2468 61.6684 34.148C61.7815 34.0228 61.9962 33.8817 62.2918 33.8082C62.5873 33.7347 62.8432 33.7588 63.0018 33.8166C63.1269 33.8622 63.19 33.921 63.2396 34.0304C68.3371 45.293 73.2693 52.683 80.3365 56.9336C87.4034 61.1841 96.2447 62.0786 108.585 61.3077C108.704 61.3002 108.786 61.3284 108.885 61.4176C109.01 61.5306 109.151 61.7454 109.225 62.0409C109.298 62.3365 109.274 62.5923 109.216 62.7509C109.171 62.8761 109.112 62.9392 109.002 62.9887C97.7397 68.0862 90.3497 73.0185 86.0991 80.0856C81.8486 87.1525 80.954 95.9938 81.725 108.334C81.73 108.415 81.7165 108.497 81.5975 108.624C81.4544 108.777 81.1876 108.947 80.8255 109.04C80.4641 109.134 80.1383 109.118 79.9228 109.051C79.7368 108.993 79.6717 108.916 79.6316 108.837C73.9131 97.5189 68.0232 90.5184 60.3174 86.5699C52.6635 82.6479 43.5234 81.9023 31.7192 82.3725Z" fill="#BDF4A4" stroke="#202020" stroke-width="4"/>
</svg>
