<svg width="352" height="97" viewBox="0 0 352 97" fill="none" xmlns="http://www.w3.org/2000/svg">
<path d="M306.93 7.41016H37.9697C16.9996 7.41016 0 26.6942 0 50.4823V53.4553C0 77.2434 16.9996 96.5275 37.9697 96.5275H306.93C327.9 96.5275 344.9 77.2434 344.9 53.4553V50.4823C344.9 26.6942 327.9 7.41016 306.93 7.41016Z" fill="#202020"/>
<path d="M42.9705 2H312.655C332.772 2 349.384 19.9221 349.384 42.4218V45.3499C349.384 67.8496 332.772 85.7717 312.655 85.7717H42.9705C22.8534 85.7717 6.24194 67.8496 6.24194 45.3499V42.4218C6.24194 19.9221 22.8534 2 42.9705 2Z" fill="#89BFFF" stroke="#202020" stroke-width="4"/>
<path d="M62.3118 55.8857L66.1219 43.3722L67.8775 36.163H68.2884L70.044 43.3722L73.7794 55.8857H82.1093L88.0485 30.8587L81.9225 30.8587L78.8968 45.0532L78.0377 50.5442H77.6268L76.4689 45.0532L72.3226 30.8587H63.9927L59.8091 45.0532L58.6511 50.5442H58.2402L57.3811 45.0532L54.3554 30.8587H48.08L53.9819 55.8857H62.3118ZM99.9185 56.2593C105.858 56.2593 109.817 53.4204 109.817 49.3488V48.9379H104.214V49.3115C104.214 50.9177 103.056 51.7768 99.7318 51.7768C96.1085 51.7768 94.7637 50.5442 94.6143 47.6679H109.855C109.929 47.0329 110.004 46.5473 110.004 45.8749C110.004 40.0104 105.932 36.798 99.8065 36.798C93.6431 36.798 89.4221 40.5707 89.4221 46.5473C89.4221 53.1963 93.6805 56.2593 99.9185 56.2593ZM99.6944 41.1684C102.982 41.1684 104.476 42.2516 104.625 44.717H94.689C94.9505 42.289 96.3699 41.1684 99.6944 41.1684ZM117.572 55.8857V50.6936H117.908C118.581 54.3916 121.046 56.2593 125.379 56.2593C131.206 56.2593 134.381 52.4492 134.381 46.5473C134.381 40.5707 131.244 36.798 125.641 36.798C121.196 36.798 118.917 39.0018 118.282 42.1396H117.983V30.8587H112.38V55.8857H117.572ZM117.983 46.6594V46.3605C117.983 43.1108 119.851 41.9154 123.474 41.9154C127.06 41.9154 128.704 43.1108 128.704 46.5473C128.704 49.9465 127.06 51.1418 123.437 51.1418C119.888 51.1418 117.983 49.9091 117.983 46.6594ZM150.842 56.2593C155.138 56.2593 157.603 54.3916 158.313 50.6936H158.611V55.8857H163.841V30.8587H158.238V42.1396H157.902C157.267 39.0018 154.988 36.798 150.543 36.798C144.977 36.798 141.802 40.5707 141.802 46.5473C141.802 52.4492 145.015 56.2593 150.842 56.2593ZM147.48 46.5473C147.48 43.1108 149.161 41.9154 152.747 41.9154C156.333 41.9154 158.238 43.1108 158.238 46.3605V46.6594C158.238 49.9091 156.296 51.1418 152.747 51.1418C149.161 51.1418 147.48 49.9465 147.48 46.5473ZM176.742 56.2593C182.681 56.2593 186.641 53.4204 186.641 49.3488V48.9379H181.037V49.3115C181.037 50.9177 179.879 51.7768 176.555 51.7768C172.932 51.7768 171.587 50.5442 171.438 47.6679H186.678C186.753 47.0329 186.827 46.5473 186.827 45.8749C186.827 40.0104 182.756 36.798 176.63 36.798C170.466 36.798 166.245 40.5707 166.245 46.5473C166.245 53.1963 170.504 56.2593 176.742 56.2593ZM176.518 41.1684C179.805 41.1684 181.299 42.2516 181.448 44.717H171.512C171.774 42.289 173.193 41.1684 176.518 41.1684ZM198.654 56.2593C204.444 56.2593 207.918 53.9433 207.918 50.4321C207.918 47.3317 206.05 45.6508 201.044 45.0905L197.048 44.6049C194.582 44.3061 194.059 43.8952 194.059 42.924C194.059 41.7287 194.769 41.2431 197.571 41.2431C201.007 41.2431 201.754 42.0275 201.754 43.559V43.7831L207.357 43.7831V43.6711C207.357 39.1139 203.883 36.798 197.757 36.798C191.332 36.798 188.531 39.4127 188.531 42.6999C188.531 45.8376 190.623 47.5185 194.358 47.9294L199.625 48.5644C201.829 48.8632 202.389 49.1621 202.389 50.208C202.389 51.3286 201.679 51.8142 198.691 51.8142C195.516 51.8142 194.47 51.3659 194.47 49.685V49.3488H188.867V49.4609C188.867 53.7939 192.341 56.2593 198.654 56.2593ZM215.781 35.2665V30.8587L210.178 30.8587V35.2665H215.781ZM215.781 55.8857V37.1715H210.178V55.8857H215.781ZM226.932 53.9807C231.116 53.9807 233.32 52.0757 233.917 49.3115H234.216V53.5325C234.216 57.1931 233.133 57.9402 229.547 57.9402C225.737 57.9402 224.915 57.3052 224.915 55.2134H219.312C219.312 59.9199 223.122 62.6094 229.173 62.6094C235.86 62.6094 239.819 59.6958 239.819 53.1589V37.1715H234.59V41.6913H234.291C233.693 38.4415 230.966 36.798 227.156 36.798C221.553 36.798 218.154 40.1598 218.154 45.3893C218.154 50.6562 221.366 53.9807 226.932 53.9807ZM223.794 45.3893C223.794 42.6252 225.363 41.654 228.949 41.654C232.423 41.654 234.216 42.6252 234.216 45.1652V45.5761C234.216 48.1535 232.46 49.1621 228.874 49.1621C225.363 49.1621 223.794 48.1535 223.794 45.3893ZM248.393 55.8857V46.4352C248.393 43.2602 249.663 41.8407 253.212 41.8407C256.648 41.8407 257.881 43.1108 257.881 46.0991V55.8857H263.484V44.2314C263.484 40.0851 261.056 36.798 255.938 36.798C251.045 36.798 248.804 39.7863 248.318 42.924H247.982V37.1715H242.79V55.8857H248.393ZM276.254 56.2593C282.194 56.2593 286.153 53.4204 286.153 49.3488V48.9379H280.55V49.3115C280.55 50.9177 279.392 51.7768 276.068 51.7768C272.444 51.7768 271.1 50.5442 270.95 47.6679H286.191C286.265 47.0329 286.34 46.5473 286.34 45.8749C286.34 40.0104 282.268 36.798 276.142 36.798C269.979 36.798 265.758 40.5707 265.758 46.5473C265.758 53.1963 270.016 56.2593 276.254 56.2593ZM276.03 41.1684C279.317 41.1684 280.812 42.2516 280.961 44.717H271.025C271.286 42.289 272.706 41.1684 276.03 41.1684ZM294.319 55.8857V45.0532C294.319 42.6999 295.216 41.5419 297.718 41.5419C299.997 41.5419 300.819 42.4384 300.819 44.4928V46.4352H306.422V43.3349C306.422 39.6742 304.703 36.798 300.52 36.798C296.747 36.798 294.767 39.1139 294.244 42.1396H293.908V37.1715H288.716V55.8857H294.319Z" fill="#202020"/>
</svg>
